<?xml version="1.0" encoding="UTF-8"?> <svg xmlns="http://www.w3.org/2000/svg" id="Layer_1" data-name="Layer 1" viewBox="0 0 650.51 649.56"><defs><style>.cls-1{fill:#fff;}</style></defs><title>SCYC_Main_Dusty_Rev</title><path class="cls-1" d="M517.94,553.77c4.13,1.09,5,1,6.23-.25a7.6,7.6,0,0,0,1.44-2.62l1.21-3a15.91,15.91,0,0,1,2.72-5c2.23-2.39,6.32-2.61,12.19-.75l-1.51,4.58c-3.65-1-5.05-.92-6.06.16a11.83,11.83,0,0,0-1.76,3.5l-1.21,3.1a12,12,0,0,1-2.27,4,7.43,7.43,0,0,1-5,2.17c-1.88.11-3.37-.11-7.42-1.28Z"></path><path class="cls-1" d="M131.55,557.63c-4.05,1.18-5.54,1.39-7.41,1.28a7.39,7.39,0,0,1-5-2.17,12.07,12.07,0,0,1-2.27-4l-1.2-3.09a12.05,12.05,0,0,0-1.76-3.51c-1-1.08-2.41-1.12-6.06-.15l-1.51-4.59c5.86-1.86,10-1.63,12.19.75a16.33,16.33,0,0,1,2.72,5l1.2,3a7.86,7.86,0,0,0,1.45,2.62c1.18,1.26,2.09,1.33,6.23.25Z"></path><path class="cls-1" d="M182.59,570.32l-12.36,40.57-7.17-4.34,2.31-7.75-9.23-5.58-5.79,5.65-7-4.25L173.83,565Zm-14.87,20.54,3.87-12.35-9.46,9Z"></path><path class="cls-1" d="M216.16,586.83c4.16,1.72,5.85,2.95,7.17,5.42a12.34,12.34,0,0,1,.61,10.13,10.42,10.42,0,0,1-6.64,6.06,10.36,10.36,0,0,1,1,10.43,12.13,12.13,0,0,1-8.71,7.2c-3.1.72-5,.47-9-1.18L188.89,620l15.71-38Zm-16.88,28.9,4.78,2c2.22.92,2.4,1,3.4.8a5.07,5.07,0,0,0,3.71-3c1.13-2.73-.18-5.21-3.48-6.57l-4.79-2Zm6.4-15.49,4.68,1.93c2.56,1.06,4.79.18,5.78-2.21a4.72,4.72,0,0,0-.35-4.15,4.25,4.25,0,0,0-2.36-1.71L209,592.26Z"></path><path class="cls-1" d="M269.89,603.33,268,611l-16.41-4-2,8.09L261.54,618l-1.92,7.85-11.92-2.92-2.13,8.69,17,4.14-1.88,7.67-25-6.11,9.78-39.95Z"></path><path class="cls-1" d="M299.71,607.24c4.17.36,6.39,1.23,9,3.62a13.7,13.7,0,0,1,4.63,11.66c-.43,4.92-2.57,8.26-7.36,11.37l5.9,15.67-8.73-.75-4.88-13-5.47-.47-1.08,12.47-8.1-.7,3.52-41Zm-6.26,20.19,3.63.32c2.64.22,4,0,5.52-1a6.37,6.37,0,0,0,3.09-4.87,6.56,6.56,0,0,0-2.26-5.46c-1.15-1-1.94-1.22-4.33-1.42l-4.55-.4Z"></path><path class="cls-1" d="M338.32,638.46A8.58,8.58,0,0,0,346.4,642c3.81-.25,6.62-2.66,6.42-5.62-.1-1.47-.9-2.41-3-3.38-1.41-.71-2-.91-10.3-3.46-5.61-1.78-8.34-4.63-8.64-9.24-.45-6.77,5.58-12.73,13.39-13.24a15.31,15.31,0,0,1,10.05,2.55c1.75,1.3,2.83,2.59,4.58,5.62l-6.55,2.9c-2.36-3-4.21-3.92-7.53-3.7-3.81.25-6.58,2.35-6.41,4.87A2.89,2.89,0,0,0,340.5,622c1.21.59,1.28.65,6.55,1.91a38.85,38.85,0,0,1,8.88,3.61,10.39,10.39,0,0,1,4.69,8.21c.48,7.32-5.37,13.08-13.92,13.65-7.45.49-12.69-2.25-16-8.33Z"></path><path class="cls-1" d="M398.79,603.48c3.37,2.65,5.64,7.14,7.18,14,1.86,8.31,1.41,14.47-1.49,19a13.13,13.13,0,0,1-8.26,5.71,13.44,13.44,0,0,1-10.81-2c-4-2.83-6.46-7.39-8.23-15.27-1.09-4.88-1.33-10.7-.56-13.78,1.43-5.44,5-9.08,10.09-10.22A14.28,14.28,0,0,1,398.79,603.48Zm-14,20.33c1.89,8.43,5,11.89,9.64,10.85s6-6.34,4.09-15-5.05-12.39-9.62-11.36C383.94,609.4,382.66,614.37,384.77,623.81Z"></path><path class="cls-1" d="M440.18,597.44c-2.38-3.18-4.75-4.17-7.44-3.11-4,1.55-5,8.77-2.19,15.89,2.9,7.4,7.95,11.51,12.09,9.89,2.69-1.05,3.86-3.3,3.65-7.06l7.45-.59a15.18,15.18,0,0,1-.88,7.22,13.42,13.42,0,0,1-18.15,6.92c-4.59-2.25-8.55-7.12-11.27-14.07-2.49-6.37-2.94-11.89-1.29-16.64a13.58,13.58,0,0,1,7.85-8.37,13.18,13.18,0,0,1,9.82.06c2.76,1.1,4.29,2.49,6.48,5.87Z"></path><path class="cls-1" d="M463.24,572.42l8.28,14.15,9.9-5.79-8.29-14.15,7.13-4.18L501,597.94l-7.13,4.18-8.5-14.53-9.9,5.8L484,607.91l-7.08,4.15-20.78-35.49Z"></path><path class="cls-1" d="M92.5,506a8.6,8.6,0,0,0-1.38-8.72c-2.28-3.07-5.82-4.13-8.2-2.37-1.19.88-1.54,2.06-1.22,4.35.16,1.57.33,2.21,2.65,10.54,1.53,5.69.6,9.52-3.12,12.27-5.45,4-13.72,2.18-18.38-4.12a15.35,15.35,0,0,1-3.28-9.84c.15-2.18.65-3.78,2.26-6.89l6,3.94c-1.24,3.61-1,5.67,1,8.34,2.28,3.07,5.54,4.27,7.57,2.77a2.88,2.88,0,0,0,1.09-3.19c-.15-1.34-.14-1.43-1.93-6.55a38.35,38.35,0,0,1-1.75-9.43,10.37,10.37,0,0,1,4.38-8.38c5.9-4.36,13.91-2.54,19,4.35,4.43,6,5,11.89,1.62,18Z"></path><path class="cls-1" d="M36.07,463.75c1.69-3.94,5.44-7.29,11.66-10.55,7.54-3.94,13.61-5.1,18.72-3.45a13.13,13.13,0,0,1,7.64,6.5,13.43,13.43,0,0,1,.86,11c-1.71,4.58-5.48,8.15-12.63,11.89-4.43,2.32-10,4-13.16,4.1-5.63,0-10-2.47-12.48-7.11A14.27,14.27,0,0,1,36.07,463.75ZM59.32,472c7.65-4,10.2-7.9,8-12.11s-7.68-4.19-15.55-.07-10.66,8.07-8.49,12.23C45.62,476.56,50.75,476.53,59.32,472Z"></path><path class="cls-1" d="M19,434.4l25.68-8.58c2.45-.82,3.25-1.34,4.19-2.83a5.72,5.72,0,0,0,.58-5.26,6,6,0,0,0-3.67-4c-1.8-.7-2.38-.7-4.72.08l-26,8.7-2.45-7.31,25.91-8.66c7.25-2.42,15.75,1.63,18.08,8.59a15.61,15.61,0,0,1-1.16,11.5,13.84,13.84,0,0,1-8.07,6.4l-25.9,8.66Z"></path><path class="cls-1" d="M3.17,370.39l7.7-1.39,1.52,8.43,32.75-5.9,1.48,8.19-32.76,5.9,1.57,8.67-7.71,1.39Z"></path><path class="cls-1" d="M.63,341.58l16.4-.52-.37-11.47-16.4.53L0,321.86l41.11-1.32.26,8.26-16.82.54.37,11.46,16.82-.54.27,8.2L.9,349.78Z"></path><path class="cls-1" d="M20.72,253.89c-4,.25-6.09,1.7-6.68,4.54-.86,4.16,4.63,9,12.12,10.51,7.79,1.62,14-.37,14.9-4.72.59-2.84-.65-5.05-3.92-6.92l3.57-6.57a15.17,15.17,0,0,1,5.57,4.69,13.4,13.4,0,0,1-4.12,19c-4.39,2.62-10.64,3.28-17.94,1.76-6.7-1.39-11.57-4-14.65-8A13.53,13.53,0,0,1,6.85,257a13.25,13.25,0,0,1,5.41-8.19c2.43-1.7,4.43-2.23,8.46-2.22Z"></path><path class="cls-1" d="M22.25,207.44l42.18,4.46-2.91,7.87-8-.81-3.74,10.12,6.64,4.62-2.84,7.69L18.71,217Zm23,10.72-12.86-1.47L43,224.28Z"></path><path class="cls-1" d="M46.6,157.25l6.92,3.8L45.4,175.86l7.3,4,5.9-10.76L65.68,173l-5.9,10.76,7.84,4.3L76,172.74l6.92,3.79L70.57,199.08,34.51,179.31Z"></path><path class="cls-1" d="M67.36,127.33c2.56-3.32,4.5-4.72,7.9-5.59a13.68,13.68,0,0,1,12.31,2.41c3.91,3,5.56,6.63,5.59,12.34L109.53,140l-5.35,6.93L90.61,144l-3.35,4.34L97.17,156l-5,6.44L59.64,137.33ZM81,143.51l2.23-2.88c1.62-2.1,2.16-3.31,2.19-5.16A6.36,6.36,0,0,0,83,130.24a6.56,6.56,0,0,0-5.81-1.05c-1.44.45-2.07,1-3.54,2.87l-2.79,3.61Z"></path><path class="cls-1" d="M99.41,91.46l22.46,8.88-15-15.91,5.69-5.37L140.77,109l-5.7,5.37-26.56-10.26,17.65,18.68-5.69,5.38L92.24,98.23Z"></path><path class="cls-1" d="M146.09,53.93l31.84,28L171,86.69l-6.1-5.31-8.9,6.1,2.75,7.61L152,99.73l-14.36-40Zm12.56,22L149,67.33l4.27,12.33Z"></path><path class="cls-1" d="M183.78,32.49c3.78-1.82,6.13-2.2,9.57-1.46a13.69,13.69,0,0,1,9.92,7.67c2.14,4.45,2,8.41-.53,13.53L215.8,62.71l-7.89,3.8-10.82-8.68-5,2.38,5.44,11.28L190.24,75,172.4,38Zm4.91,20.56L192,51.47c2.39-1.15,3.42-2,4.27-3.63a6.35,6.35,0,0,0,.17-5.77,6.53,6.53,0,0,0-4.72-3.54c-1.48-.24-2.29-.06-4.45,1l-4.11,2Z"></path><path class="cls-1" d="M222.6,16.64l15.54,24.83L237,12.22l7.9-2.42,1.61,42.51-9.78,3L214.71,19.06Z"></path><path class="cls-1" d="M288.67,6.61c3.18,2.9,5.11,7.53,6.14,14.49,1.25,8.41.36,14.53-2.87,18.81A13.13,13.13,0,0,1,283.28,45a13.44,13.44,0,0,1-10.63-2.78c-3.77-3.12-5.91-7.85-7.09-15.84-.74-4.94-.54-10.77.44-13.78,1.83-5.32,5.63-8.69,10.81-9.46A14.3,14.3,0,0,1,288.67,6.61ZM273.21,25.87c1.27,8.53,4.12,12.22,8.82,11.52s6.48-5.88,5.17-14.66-4.13-12.73-8.77-12C273.43,11.44,271.79,16.29,273.21,25.87Z"></path><path class="cls-1" d="M325,.12l10,22L335.26.24l7.84.1-.5,41.13-7.84-.09-12-25.87-.31,25.71-7.83-.09L315.16,0Z"></path><path class="cls-1" d="M367.52,33.43a8.6,8.6,0,0,0,7,5.32c3.77.64,7.06-1.06,7.55-4,.25-1.47-.31-2.56-2.14-4-1.2-1-1.77-1.37-9.22-5.75-5.05-3.05-7-6.45-6.26-11,1.13-6.69,8.38-11.09,16.1-9.78a15.38,15.38,0,0,1,9.19,4.81c1.41,1.67,2.15,3.17,3.15,6.53l-7,1.31c-1.6-3.46-3.19-4.79-6.48-5.35-3.76-.64-6.94.77-7.36,3.26a2.86,2.86,0,0,0,1.42,3c1,.87,1.09.94,5.93,3.38a39.34,39.34,0,0,1,7.81,5.58,10.39,10.39,0,0,1,2.65,9.08c-1.22,7.23-8.26,11.49-16.71,10.05-7.35-1.24-11.82-5.13-13.63-11.81Z"></path><path class="cls-1" d="M423.57,15.25,418.35,30.8l10.88,3.65,5.21-15.55,7.84,2.63-13.09,39-7.83-2.63,5.35-16-10.87-3.65-5.36,16-7.77-2.61,13.09-39Z"></path><path class="cls-1" d="M471.73,34.91,453.68,71.85l-7.19-3.52L464.54,31.4Z"></path><path class="cls-1" d="M503.87,53.51c3.5,2.31,5,4.14,6.15,7.47a13.72,13.72,0,0,1-1.5,12.46c-2.72,4.11-6.2,6-11.9,6.48L494.31,96.5,487,91.67l1.92-13.74-4.58-3-6.91,10.45-6.79-4.49,22.68-34.32ZM488.72,68.27l3,2c2.21,1.46,3.46,1.92,5.31,1.81a6.32,6.32,0,0,0,5-2.81,6.53,6.53,0,0,0,.63-5.87c-.55-1.4-1.12-2-3.13-3.32l-3.8-2.52Z"></path><path class="cls-1" d="M553.32,93.17,548,99,535.5,87.65l-5.59,6.17,9.08,8.25-5.43,6-9.08-8.25-6,6.62,12.92,11.73L526.08,124l-19-17.29,27.65-30.45Z"></path><path class="cls-1" d="M587.6,133.07l-8.32,15.12,17.14-2.48,5,7.18-27.57,3.82-13.4,9.35-4.69-6.72,13.4-9.36,13.44-24Z"></path><path class="cls-1" d="M617.18,182l-31.87,28-3.82-7.47,6-5.37-4.92-9.61-7.89,1.76L571,182l41.52-9.12Zm-23.46,9.64,9.79-8.47-12.77,2.65Z"></path><path class="cls-1" d="M623.85,231.69c3.28-2.23,4.38-4.55,3.45-7.3-1.37-4-8.54-5.38-15.78-2.92-7.53,2.57-11.87,7.42-10.45,11.63.94,2.74,3.13,4,6.89,4l.26,7.47a15.16,15.16,0,0,1-7.19-1.21A13.43,13.43,0,0,1,595,224.89c2.45-4.49,7.5-8.22,14.57-10.62,6.48-2.2,12-2.39,16.69-.52a13.56,13.56,0,0,1,8,8.22,13.27,13.27,0,0,1-.51,9.81c-1.24,2.7-2.69,4.17-6.17,6.2Z"></path><path class="cls-1" d="M644.52,263.73l-16.15,2.8,2,11.29L646.48,275l1.41,8.14-40.51,7L606,282l16.58-2.87-2-11.29L604,270.74l-1.4-8.08,40.51-7Z"></path><path class="cls-1" d="M650.51,329.4l-7.82.21-.23-8.57-33.27.87-.21-8.32,33.27-.87-.23-8.81,7.82-.2Z"></path><path class="cls-1" d="M630.73,392.58c3.95-.3,6.06-1.78,6.61-4.62.81-4.17-4.74-8.89-12.24-10.35-7.81-1.52-14,.55-14.83,4.9-.56,2.85.71,5,4,6.87L610.79,396a15.19,15.19,0,0,1-5.64-4.61,13.41,13.41,0,0,1,3.89-19c4.35-2.67,10.58-3.4,17.9-2,6.72,1.3,11.62,3.89,14.75,7.83a13.55,13.55,0,0,1,2.86,11.1,13.19,13.19,0,0,1-5.31,8.26c-2.4,1.73-4.4,2.29-8.42,2.32Z"></path><path class="cls-1" d="M632.83,430.46,601.7,419.74l-4.88,14.16-7.75-2.66,7.57-22,38.88,13.4Z"></path><path class="cls-1" d="M616.62,469.58l-24-12.49c-2.3-1.2-3.23-1.4-5-1a5.73,5.73,0,0,0-4.19,3.25,6,6,0,0,0-.3,5.4c.74,1.77,1.15,2.19,3.34,3.33l24.34,12.66-3.55,6.84-24.24-12.6c-6.78-3.53-9.79-12.46-6.4-19a15.62,15.62,0,0,1,9.08-7.17,13.89,13.89,0,0,1,10.21,1.35l24.23,12.61Z"></path><path class="cls-1" d="M586.91,518.07c-2.67,3.62-4.28,5-7,5.64a12.27,12.27,0,0,1-10-1.85,10.42,10.42,0,0,1-4.27-7.91,10.37,10.37,0,0,1-10.37-1.52,12.16,12.16,0,0,1-4.88-10.2c.05-3.18.75-5,3.31-8.43l7.55-10.21L594.34,508Zm-24-23.36-3.08,4.16c-1.43,1.93-1.54,2.08-1.6,3.11a5.12,5.12,0,0,0,2,4.32c2.37,1.76,5.09,1.09,7.22-1.79l3.07-4.16Zm13.48,10-3,4.07c-1.65,2.23-1.33,4.61.75,6.14a4.68,4.68,0,0,0,4.11.67,4.31,4.31,0,0,0,2.23-1.88l2.85-3.87Z"></path><path class="cls-1" d="M303.19,428.42l1.42,4.21-9,3,1.49,4.45,6.56-2.2,1.44,4.32-6.55,2.2,1.6,4.78,9.32-3.13,1.42,4.21-13.74,4.61-7.37-22Z"></path><path class="cls-1" d="M322.32,440a4.84,4.84,0,0,0,4.91.77c2-.69,3.23-2.4,2.7-4-.27-.79-.84-1.18-2.13-1.41-.86-.18-1.24-.21-6.1-.4-3.33-.17-5.22-1.34-6.05-3.81-1.21-3.62,1.22-7.74,5.41-9.14a8.68,8.68,0,0,1,5.84-.06,9,9,0,0,1,3.3,2.41l-3.15,2.53c-1.71-1.29-2.86-1.53-4.63-.94-2.05.69-3.25,2.23-2.8,3.58a1.62,1.62,0,0,0,1.52,1.14c.74.15.79.17,3.85.1a22.23,22.23,0,0,1,5.36.69,5.9,5.9,0,0,1,3.73,3.81c1.32,3.92-1.05,7.91-5.63,9.44-4,1.34-7.24.6-9.92-2.24Z"></path><path class="cls-1" d="M351,412.38l1.4,4.19-4.58,1.53,6,17.79-4.45,1.5-6-17.8-4.72,1.59-1.4-4.19Z"></path><path class="cls-1" d="M369.09,426.14l1.4,4.15-4.19,1.41-1.39-4.15Z"></path><path class="cls-1" d="M395.38,397.5l7.38,22-4.29,1.44-5.13-15.29a6.28,6.28,0,0,1-3.92,3.26L388,404.53a6.71,6.71,0,0,0,3.14-5.6Z"></path><path class="cls-1" d="M414.37,409.12a3.83,3.83,0,0,0,3.95.95c2.28-.76,3.13-3.47,2.09-6.56a5.24,5.24,0,0,0-.25-.62,7.09,7.09,0,0,1-8.35,2.51,7.5,7.5,0,0,1-3.91-10.24,8.17,8.17,0,0,1,4.53-3.75,8,8,0,0,1,5.9.33c2.39,1.22,4.57,4.11,5.82,7.84,1.31,3.92,1.33,7.8.06,10.68a7.14,7.14,0,0,1-4.49,3.89,9.25,9.25,0,0,1-3.92.43c-1.2-.18-2.42-.88-4.22-2.32Zm-2.77-9.7a3,3,0,0,0,4.1,1.74c1.88-.62,2.8-2.14,2.28-3.69a3.08,3.08,0,0,0-4.08-1.67C412.09,396.4,411.1,397.94,411.6,399.42Z"></path><path class="cls-1" d="M432.08,392.89a5.3,5.3,0,0,1-.44-3.27,7.59,7.59,0,0,1,5.58-6.53,7.32,7.32,0,0,1,6.69.58,8,8,0,0,1,3.3,4.18c.69,2,.43,3.34-1.34,6.71l-3.74,7.2,8.86-3,1.36,4.06-15.22,5.1-1.36-4.05,6.31-11.46c.94-1.68,1.08-2.46.75-3.45a3,3,0,0,0-3.89-1.66,4.12,4.12,0,0,0-2.49,2.23,2.72,2.72,0,0,0-.06,1.89Z"></path><path class="cls-1" d="M467.14,373.43l4.47,13.34L474,386l1.47,4.39-2.37.79,1.43,4.25L469.9,397l-1.43-4.25-9.16,3.07-1.56-4.64L462.53,375ZM467,388.32l-2-5.87-2.15,7.25Z"></path><path class="cls-1" d="M537.43,321.14,213.75,212.27a3.92,3.92,0,0,0-5.17,3.71V433.73a3.92,3.92,0,0,0,3.92,3.92,4.13,4.13,0,0,0,1.25-.2L537.43,328.57a3.92,3.92,0,0,0,0-7.43Zm-145.6-40.71L327.46,304l-17-16.54v-6.57a3.92,3.92,0,1,0-7.83,0v6.57L285.69,304,216.42,280V221.43ZM333.74,388.82,324,342.19v-5.56l80.1,28.53ZM216.42,288.24l72.7,25.25v14.86l-72.7,25.88Zm90.14,6.37,7.9,7.7H298.65ZM297,336.15h19.21v2.52H297Zm0-7.83V310.77h19.21v17.55Zm-1.19,18.19h21.13l9.38,44.82L285.6,405Zm-79.34,16,72.7-25.87v3.9a3.93,3.93,0,0,0-.51,1.35l-11.45,65.93-60.74,20.43Zm199.68-1.42L324,328.31V313.65l79.43-29.12a2.53,2.53,0,0,0,.23-.12l120.24,40.45Z"></path><path class="cls-1" d="M215.3,175.57a20.53,20.53,0,1,0-20.53,20.52A20.55,20.55,0,0,0,215.3,175.57Zm-33.22,0a12.69,12.69,0,1,1,12.69,12.69A12.71,12.71,0,0,1,182.08,175.57Z"></path><path class="cls-1" d="M193.8,205.12a3.92,3.92,0,0,0-3.92,3.92V490.6a3.92,3.92,0,0,0,7.83,0V209A3.92,3.92,0,0,0,193.8,205.12Z"></path></svg> 