<?xml version="1.0" encoding="utf-8"?>
<!-- Generator: Adobe Illustrator 21.1.0, SVG Export Plug-In . SVG Version: 6.00 Build 0)  -->
<svg version="1.1" id="Layer_1" xmlns="http://www.w3.org/2000/svg" xmlns:xlink="http://www.w3.org/1999/xlink" x="0px" y="0px"
	 viewBox="0 0 3280.1 606" enable-background="new 0 0 3280.1 606" xml:space="preserve">
<g>
	<path fill-rule="evenodd" clip-rule="evenodd" d="M104.1,591.5c-48.8,0-88.5-39.7-88.5-88.5V102.1c0-48.8,39.7-88.5,88.5-88.5
		h3072.2c48.8,0,88.5,39.7,88.5,88.5V503c0,48.8-39.7,88.5-88.5,88.5H104.1z"/>
	<path fill="#FFFFFF" d="M3176.2,18.1c46.4,0,84,37.6,84,84V503c0,46.4-37.6,84-84,84H104.1c-46.4,0-84-37.6-84-84V102.1
		c0-46.4,37.6-84,84-84H3176.2 M3176.2,9.1H104.1c-51.3,0-93,41.7-93,93V503c0,51.3,41.7,93,93,93h3072.2c51.3,0,93-41.7,93-93
		V102.1C3269.2,50.9,3227.5,9.1,3176.2,9.1L3176.2,9.1z"/>
</g>
<path fill-rule="evenodd" clip-rule="evenodd" fill="#FFFFFF" d="M231.4,318.8h74.2V140.3h104.7V80.5H127.2v59.6h104.7L231.4,318.8z
	 M3081.8,526.8h70.6v-17.5h-48.7v-53.5h-22L3081.8,526.8z M2966.3,526.8h25l6.8-12.6h46.8l6.5,12.6h25.1l-40.2-70.9h-29.6
	L2966.3,526.8z M3006.2,499.4l15.3-27.9l15.2,27.9L3006.2,499.4z M2939.1,526.8h21.8v-70.9H2939L2939.1,526.8z M2907.3,499.7
	c0.4,3.9-0.7,6.3-2,7.6c-1.2,1.1-2.8,2.4-11,2.4c-3,0-6,0-9,0c-3.6,0-7.2,0.1-10.7,0.1c-14.2,0-14.5-5.3-14.5-20.5
	c0-12.5,3.2-14.7,8.3-15.7c1.1-0.2,2.1-0.4,15.6-0.5c7.5-0.1,8.7-0.1,9.6-0.1c8.6,0,9.8,1.1,10.8,2.1c1.3,1.1,2.4,3.5,2.3,6.3h21
	c0.3-5.6-0.8-11.3-1.8-13.7c-2.5-5.9-6.8-9.8-17.2-11.6c-0.9-0.2-2.1-0.7-25.6-0.7c-25.5,0-33.7,2.3-38.9,7.6
	c-3.8,4-6.3,9.3-6.3,28.2c0,24.7,5.2,29.1,12,32.6c2.4,1.2,6,2.7,16.2,3.3c0.4,0,8.9,0.4,20.6,0.4c12.1,0,18.4-0.4,19.2-0.5
	c13-1.3,16.8-4.6,19.4-8.2c1.8-2.5,3.2-5.7,3.2-13.5v-5.6H2907.3z M2737.7,526.8h22v-17.7h32.5c8.1,0,12.3,0.1,12.3,9.6v8.1h21.9
	v-11.5c0-7.9-1.3-9.7-2.9-11.4c-1.5-1.6-5.2-3.6-11-4c6.6-0.8,11-4.2,13.2-8.7c0.8-1.7,2.1-5.7,2.1-13c0-10.8-3.3-15.7-7.2-18.6
	c-2.8-2.1-5.9-3.7-16.9-3.7h-65.9V526.8z M2759.6,491.6v-18.1h34.1c6,0,12.1-0.1,12.1,8.4c0,5.2-1.4,7-3,8.1
	c-0.9,0.6-2.2,1.5-9.1,1.5L2759.6,491.6z M2647.8,526.8h79.3v-15.8h-57.4v-12.4h53.6v-14.3h-53.5v-12.4h56.6v-16h-78.6V526.8z
	 M2517.9,526.8h21v-52.9l29.9,52.9h17.6l29.8-53.1v53.1h21v-70.9h-34.3l-25.3,46.7l-25.3-46.7h-34.4V526.8z M2387.9,526.8h21v-52.9
	l29.9,52.9h17.6l29.8-53.1v53.1h21v-70.9H2473l-25.3,46.7l-25.3-46.7h-34.4V526.8z M2326.4,527.6c1.8,0,3.6,0,5.4,0
	c21.6,0,32.5-0.2,39.5-7.7c5.4-5.9,6.1-12.8,6.1-32c0-13.5-1.2-16.5-2.3-19.1c-2.7-6.2-6.9-9.9-14.7-11.9c-2.2-0.5-3.9-1.7-37-1.7
	c-25.7,0-29,2.2-31.7,3.6c-10.2,5.4-11.3,14.4-11.3,30.7c0,17.9,0.4,28.4,11.2,34.2c2.8,1.5,7,3.2,20,3.7
	C2312.9,527.4,2319.1,527.6,2326.4,527.6z M2331.2,510.3c-1.6,0-3.2,0-4.8,0c-17.6,0-18.1-1.3-19.4-2.1c-2.1-1.3-3.6-3.3-4.3-7.2
	c-0.1-0.5-0.4-2.1-0.4-8c0-8.2,0.4-10.8,0.5-11.3c0.9-5.3,3.4-7.9,10.3-8.7c1.9-0.2,10.4-0.4,15.8-0.4c24.2,0,26.6,0.5,26.6,18.5
	c0,7-0.4,9.6-0.5,10c-1,5.5-3.5,8-10.4,8.8C2342.8,510.1,2340.5,510.3,2331.2,510.3z M2248.6,499.7c0.4,3.9-0.7,6.3-2,7.6
	c-1.2,1.1-2.8,2.4-11,2.4c-3,0-6,0-9,0c-3.6,0-7.2,0.1-10.7,0.1c-14.2,0-14.5-5.3-14.5-20.5c0-12.5,3.2-14.7,8.3-15.7
	c1.1-0.2,2.1-0.4,15.6-0.5c7.5-0.1,8.7-0.1,9.6-0.1c8.6,0,9.8,1.1,10.8,2.1c1.3,1.1,2.4,3.5,2.3,6.3h21c0.3-5.6-0.8-11.3-1.8-13.7
	c-2.5-5.9-6.8-9.8-17.2-11.6c-0.9-0.2-2.1-0.7-25.6-0.7c-25.5,0-33.7,2.3-38.9,7.6c-3.8,4-6.3,9.3-6.3,28.2c0,24.7,5.2,29.1,12,32.6
	c2.4,1.2,6,2.7,16.2,3.3c0.4,0,8.9,0.4,20.6,0.4c12.1,0,18.4-0.4,19.2-0.5c13-1.3,16.8-4.6,19.4-8.2c1.8-2.5,3.2-5.7,3.2-13.5v-5.6
	H2248.6z M1828.2,526.8h79.3v-15.8H1850v-12.4h53.6v-14.3h-53.5v-12.4h56.6v-16h-78.6V526.8z M1717.7,526.8h22v-52.9l42.1,52.9h35.8
	v-71h-22v52.9l-42-52.9h-35.8L1717.7,526.8z M1685.2,526.8h21.8v-70.9h-21.9L1685.2,526.8z M1584.6,526.8h22v-17.7h32.5
	c8.1,0,12.3,0.1,12.3,9.6v8.1h21.9v-11.5c0-7.9-1.3-9.7-2.9-11.4c-1.5-1.6-5.2-3.6-11-4c6.6-0.8,11-4.2,13.2-8.7
	c0.8-1.7,2.1-5.7,2.1-13c0-10.8-3.3-15.7-7.2-18.6c-2.8-2.1-5.9-3.7-16.9-3.7h-65.8V526.8z M1606.6,491.6v-18.1h34
	c6,0,12.1-0.1,12.1,8.4c0,5.2-1.4,7-3,8.1c-0.9,0.6-2.2,1.5-9.1,1.5L1606.6,491.6z M1469.2,526.8h25l6.8-12.6h46.8l6.5,12.6h25.1
	l-40.2-70.9h-29.6L1469.2,526.8z M1509.2,499.4l15.3-27.9l15.2,27.9L1509.2,499.4z M1344.6,526.8h21v-52.9l29.9,52.9h17.6l29.8-53.1
	v53.1h21v-70.9h-34.3l-25.3,46.7l-25.3-46.7h-34.4V526.8z M993.4,526.8h79.3v-15.8h-57.4v-12.4h53.6v-14.3h-53.5v-12.4h56.6v-16
	h-78.6V526.8z M922.9,526.8h27.5l37.7-70.9H965l-28.4,53.3l-28.2-53.3h-23L922.9,526.8z M858.3,526.8h21.8v-70.9h-21.9L858.3,526.8z
	 M799.6,526.8h22.1v-53.1h31.2v-17.8h-84.4v17.7h31.2L799.6,526.8z M712.3,527.6c1.8,0,3.6,0,5.4,0c21.6,0,32.5-0.2,39.5-7.7
	c5.4-5.9,6.1-12.8,6.1-32c0-13.5-1.2-16.5-2.3-19.1c-2.7-6.2-6.9-9.9-14.7-11.9c-2.2-0.5-3.9-1.7-37-1.7c-25.7,0-29,2.2-31.7,3.6
	c-10.2,5.4-11.3,14.4-11.3,30.7c0,17.9,0.4,28.4,11.2,34.2c2.8,1.5,7,3.2,20,3.7C698.8,527.4,705,527.6,712.3,527.6z M717.1,510.3
	c-1.6,0-3.2,0-4.8,0c-17.6,0-18.1-1.3-19.4-2.1c-2.1-1.3-3.6-3.3-4.3-7.2c-0.1-0.5-0.4-2.1-0.4-8c0-8.2,0.4-10.8,0.5-11.3
	c0.9-5.3,3.4-7.9,10.3-8.7c1.9-0.2,10.4-0.4,15.8-0.4c24.2,0,26.6,0.5,26.6,18.5c0,7-0.4,9.6-0.5,10c-1,5.5-3.5,8-10.4,8.8
	C728.7,510.1,726.5,510.3,717.1,510.3z M536.2,526.8h21v-52.9l29.9,52.9h17.6l29.8-53.1v53.1h21v-70.9h-34.3l-25.3,46.7l-25.3-46.7
	h-34.4V526.8z M474.7,527.6c1.8,0,3.6,0,5.4,0c21.6,0,32.5-0.2,39.5-7.7c5.4-5.9,6.1-12.8,6.1-32c0-13.5-1.2-16.5-2.3-19.1
	c-2.7-6.2-6.9-9.9-14.7-11.9c-2.2-0.5-3.9-1.7-37-1.7c-25.7,0-29,2.2-31.7,3.6c-10.2,5.4-11.3,14.4-11.3,30.7
	c0,17.9,0.4,28.4,11.2,34.2c2.8,1.5,7,3.2,20,3.7C461.2,527.4,467.4,527.6,474.7,527.6z M479.5,510.3c-1.6,0-3.2,0-4.8,0
	c-17.6,0-18.1-1.3-19.4-2.1c-2.1-1.3-3.6-3.3-4.3-7.2c-0.1-0.5-0.4-2.1-0.4-8c0-8.2,0.4-10.8,0.5-11.3c0.9-5.3,3.4-7.9,10.3-8.7
	c1.9-0.2,10.4-0.4,15.8-0.4c24.2,0,26.6,0.5,26.6,18.5c0,7-0.4,9.6-0.5,10c-1,5.5-3.5,8-10.4,8.8
	C491.1,510.1,488.8,510.3,479.5,510.3z M370,526.8h22.1v-53.1h31.2v-17.8h-84.4v17.7h31.2L370,526.8z M242.6,455.9v40.3
	c0,1.2,0,2.5,0,3.7c0,8.3,0.3,20.6,14.9,25.5c2.7,0.8,6.6,2.1,25.1,2.1c2.2,0,4.5,0,6.7,0c18.2,0,27.8-0.1,34.7-4.5
	c10.1-6.5,9.5-16.7,9.5-26.8v-40.2h-21.8v42.1c0,11-5.1,12.2-22,12.2c-20.7,0-25.4-0.5-25.4-12.2v-42L242.6,455.9z M127.9,526.8h25
	l6.8-12.6h46.8l6.5,12.6H238l-40.2-70.9h-29.6L127.9,526.8z M167.8,499.4l15.3-27.9l15.2,27.9L167.8,499.4z M127.9,370.6h3024.4
	v19.7H127.9V370.6z M2854.6,243.4c-2.1,41.5,10.9,58.8,26.7,67.8c5.9,3.4,17.1,8.7,59.1,9.6c6.9,0.2,26.8,0.5,42.1,0.5
	c16,0,29.2-0.2,59.9-1.3c42.5-1.5,44.9-2.3,47.3-2.6c36.9-5.1,63.4-19.5,63.4-74.5c0-55.9-29.5-65.6-63.1-69.5
	c-2.9-0.3-6-1.2-62.5-1.9c-19.9-0.3-39.8-0.3-59.8-0.6c-29.8-0.5-31.5-2.8-33.7-4.2c-5.7-3.5-8.3-7.7-8.3-15.8
	c0-6.3,2.4-13.5,11.8-17.4c1.1-0.4,2.3-4,69.2-4c41.8,0,46,1.6,47.3,1.9c11.3,2.7,16.6,9.6,15.8,21.8h72.7c1-16.8-2.3-33.7-5.1-40.5
	c-6.5-15.8-16.4-25.7-43.9-31.4c-3.6-0.7-19.2-3.7-79.6-3.7c-120.9,0-161.5,2.5-161.5,76.8c0,32.9,8.1,47,16.2,54.9
	c5.9,5.7,14.3,11.1,37.3,14.4c3.7,0.6,5.9,1.4,51.2,2c23.6,0.3,47.2,0.7,70.9,1c8.5,0.1,16.9-0.1,25.4,0.3
	c13.6,0.8,25.7,3.1,25.7,20.7c0,10.6-4.2,17.6-24,20c-2.4,0.3-19,1.9-63,1.9c-28.3,0-39.1-0.7-39.3-0.7
	c-20.9-1.5-25.9-8.6-24.8-25.6H2854.6z M2519.5,243.4c-2.1,41.5,10.9,58.8,26.7,67.8c5.9,3.4,17.1,8.7,59.1,9.6
	c6.9,0.2,26.8,0.5,42.1,0.5c16,0,29.2-0.2,59.9-1.3c42.5-1.5,44.9-2.3,47.3-2.6c36.9-5.1,63.4-19.5,63.4-74.5
	c0-55.9-29.5-65.6-63.1-69.5c-2.9-0.3-6-1.2-62.5-1.9c-19.9-0.3-39.8-0.3-59.8-0.6c-29.8-0.5-31.5-2.8-33.7-4.2
	c-5.7-3.5-8.3-7.7-8.3-15.8c0-6.3,2.4-13.5,11.8-17.4c1.1-0.4,2.3-4,69.2-4c41.8,0,46,1.6,47.3,1.9c11.3,2.7,16.6,9.6,15.8,21.8
	h72.7c1-16.8-2.3-33.7-5.1-40.5c-6.5-15.8-16.4-25.7-43.9-31.4c-3.6-0.7-19.2-3.7-79.6-3.7c-120.9,0-161.5,2.5-161.5,76.8
	c0,32.9,8.1,47,16.2,54.9c5.9,5.7,14.3,11.1,37.3,14.4c3.7,0.6,5.9,1.4,51.2,2c23.6,0.3,47.2,0.7,70.9,1c8.5,0.1,16.9-0.1,25.4,0.3
	c13.6,0.8,25.7,3.1,25.7,20.7c0,10.6-4.2,17.6-24,20c-2.4,0.3-19,1.9-63,1.9c-28.3,0-39.1-0.7-39.3-0.7
	c-20.9-1.5-25.9-8.6-24.8-25.6H2519.5z M2132.2,318.7h83.9l22.8-42.3h156.9l21.8,42.4h84.2L2366.9,80.5h-99.3L2132.2,318.7z
	 M2266.2,226.6l51.2-93.6l51.1,93.5L2266.2,226.6z M1877.4,318.7h237V260H1951V80.5h-73.7L1877.4,318.7z M1677.6,230.4h91.4
	c0.6,23.1-5.4,28.5-19.1,31.2c-1.3,0.3-1.5,1.2-38.2,1.4c-2.6,0-22.1,0.2-31.4,0.2c-36.3,0-40.5-1.1-42.5-1.4
	c-32.7-5.4-34.3-21.3-34.3-57.9c0-44.8,3.4-54,13.5-61.5c3.6-2.7,8.1-6.3,38.2-7.1c4.2-0.1,12.6-0.3,28.4-0.3c55.5,0,63,1,66.7,1.8
	c13,3.1,19.6,12.1,19.1,25.5h72.5c0.3-3.1,0.5-6.4,0.5-9.6c0-50.3-26.5-61.8-39.8-67.1c-7.3-3-22.9-8.1-73.8-8.1
	c-5.9,0-11.7,0-17.6,0c-59.9,0-90.8,1.9-93.1,2.1c-33.7,3-45.9,8.2-52.8,12c-16.1,8.8-23.7,17.5-30.7,38.8
	c-1.9,5.8-6.1,22.6-6.1,66.2c0,87,17.3,100.7,36.4,111.4c7.1,4,22.8,11.5,83.4,12.8c4.6,0.1,15.1,0.2,38.6,0.2c9.9,0,19.9,0,29.9,0
	c43.8,0,47.6-0.7,51.6-1.1c29.9-2.9,50.4-9.2,63.5-31.4c4.9-8.4,10.8-29.2,9.6-49.7l0.5-54.3h-164.4V230.4z M1143.3,318.7h83.9
	l22.8-42.3h156.9l21.8,42.4h84.2L1378,80.5h-99.3L1143.3,318.7z M1277.3,226.6l51.3-93.6l51.1,93.5L1277.3,226.6z M994.7,318.8h74.2
	V140.3h104.7V80.5H890.4v59.6h104.7L994.7,318.8z M537.3,318.9h73.6V141.1l141.2,177.7h120.4V80.5h-74v177.6l-141-177.6H537.5
	L537.3,318.9z M428.4,318.7h73.2V80.5h-73.5L428.4,318.7z"/>
</svg>
